<svg width="117" height="32" viewBox="0 0 117 32" fill="none" xmlns="http://www.w3.org/2000/svg">
<path d="M12.688 18.816H16.592V20H11.232V8.848H12.688V18.816ZM26.1383 15.28C26.1383 15.5573 26.1223 15.8507 26.0903 16.16H19.0823C19.1356 17.024 19.4289 17.7013 19.9623 18.192C20.5063 18.672 21.1623 18.912 21.9303 18.912C22.5596 18.912 23.0823 18.768 23.4983 18.48C23.9249 18.1813 24.2236 17.7867 24.3943 17.296H25.9623C25.7276 18.1387 25.2583 18.8267 24.5543 19.36C23.8503 19.8827 22.9756 20.144 21.9303 20.144C21.0983 20.144 20.3516 19.9573 19.6903 19.584C19.0396 19.2107 18.5276 18.6827 18.1543 18C17.7809 17.3067 17.5943 16.5067 17.5943 15.6C17.5943 14.6933 17.7756 13.8987 18.1383 13.216C18.5009 12.5333 19.0076 12.0107 19.6583 11.648C20.3196 11.2747 21.0769 11.088 21.9303 11.088C22.7623 11.088 23.4983 11.2693 24.1383 11.632C24.7783 11.9947 25.2689 12.496 25.6103 13.136C25.9623 13.7653 26.1383 14.48 26.1383 15.28ZM24.6343 14.976C24.6343 14.4213 24.5116 13.9467 24.2663 13.552C24.0209 13.1467 23.6849 12.8427 23.2583 12.64C22.8423 12.4267 22.3783 12.32 21.8663 12.32C21.1303 12.32 20.5009 12.5547 19.9783 13.024C19.4663 13.4933 19.1729 14.144 19.0983 14.976H24.6343ZM31.6761 11.088C32.4335 11.088 33.0948 11.2533 33.6601 11.584C34.2361 11.9147 34.6628 12.3307 34.9401 12.832V11.232H36.4121V20.192C36.4121 20.992 36.2415 21.7013 35.9001 22.32C35.5588 22.9493 35.0681 23.44 34.4281 23.792C33.7988 24.144 33.0628 24.32 32.2201 24.32C31.0681 24.32 30.1081 24.048 29.3401 23.504C28.5721 22.96 28.1188 22.2187 27.9801 21.28H29.4201C29.5801 21.8133 29.9108 22.24 30.4121 22.56C30.9135 22.8907 31.5161 23.056 32.2201 23.056C33.0201 23.056 33.6708 22.8053 34.1721 22.304C34.6841 21.8027 34.9401 21.0987 34.9401 20.192V18.352C34.6521 18.864 34.2255 19.2907 33.6601 19.632C33.0948 19.9733 32.4335 20.144 31.6761 20.144C30.8975 20.144 30.1881 19.952 29.5481 19.568C28.9188 19.184 28.4228 18.6453 28.0601 17.952C27.6975 17.2587 27.5161 16.4693 27.5161 15.584C27.5161 14.688 27.6975 13.904 28.0601 13.232C28.4228 12.5493 28.9188 12.0213 29.5481 11.648C30.1881 11.2747 30.8975 11.088 31.6761 11.088ZM34.9401 15.6C34.9401 14.9387 34.8068 14.3627 34.5401 13.872C34.2735 13.3813 33.9108 13.008 33.4521 12.752C33.0041 12.4853 32.5081 12.352 31.9641 12.352C31.4201 12.352 30.9241 12.48 30.4761 12.736C30.0281 12.992 29.6708 13.3653 29.4041 13.856C29.1375 14.3467 29.0041 14.9227 29.0041 15.584C29.0041 16.256 29.1375 16.8427 29.4041 17.344C29.6708 17.8347 30.0281 18.2133 30.4761 18.48C30.9241 18.736 31.4201 18.864 31.9641 18.864C32.5081 18.864 33.0041 18.736 33.4521 18.48C33.9108 18.2133 34.2735 17.8347 34.5401 17.344C34.8068 16.8427 34.9401 16.2613 34.9401 15.6ZM38.3286 15.584C38.3286 14.688 38.51 13.904 38.8726 13.232C39.2353 12.5493 39.7313 12.0213 40.3606 11.648C41.0006 11.2747 41.71 11.088 42.4886 11.088C43.2566 11.088 43.9233 11.2533 44.4886 11.584C45.054 11.9147 45.4753 12.3307 45.7526 12.832V11.232H47.2246V20H45.7526V18.368C45.4646 18.88 45.0326 19.3067 44.4566 19.648C43.8913 19.9787 43.23 20.144 42.4726 20.144C41.694 20.144 40.99 19.952 40.3606 19.568C39.7313 19.184 39.2353 18.6453 38.8726 17.952C38.51 17.2587 38.3286 16.4693 38.3286 15.584ZM45.7526 15.6C45.7526 14.9387 45.6193 14.3627 45.3526 13.872C45.086 13.3813 44.7233 13.008 44.2646 12.752C43.8166 12.4853 43.3206 12.352 42.7766 12.352C42.2326 12.352 41.7366 12.48 41.2886 12.736C40.8406 12.992 40.4833 13.3653 40.2166 13.856C39.95 14.3467 39.8166 14.9227 39.8166 15.584C39.8166 16.256 39.95 16.8427 40.2166 17.344C40.4833 17.8347 40.8406 18.2133 41.2886 18.48C41.7366 18.736 42.2326 18.864 42.7766 18.864C43.3206 18.864 43.8166 18.736 44.2646 18.48C44.7233 18.2133 45.086 17.8347 45.3526 17.344C45.6193 16.8427 45.7526 16.2613 45.7526 15.6ZM51.1411 8.16V20H49.6851V8.16H51.1411ZM62.1603 11.072C63.2269 11.072 64.0909 11.3973 64.7523 12.048C65.4136 12.688 65.7443 13.616 65.7443 14.832V20H64.3043V15.04C64.3043 14.1653 64.0856 13.4987 63.6483 13.04C63.2109 12.5707 62.6136 12.336 61.8563 12.336C61.0883 12.336 60.4749 12.576 60.0163 13.056C59.5683 13.536 59.3443 14.2347 59.3443 15.152V20H57.8883V11.232H59.3443V12.48C59.6323 12.032 60.0216 11.6853 60.5123 11.44C61.0136 11.1947 61.5629 11.072 62.1603 11.072ZM71.9466 20.144C71.1253 20.144 70.3786 19.9573 69.7066 19.584C69.0453 19.2107 68.5226 18.6827 68.1386 18C67.7653 17.3067 67.5786 16.5067 67.5786 15.6C67.5786 14.704 67.7706 13.9147 68.1546 13.232C68.5493 12.5387 69.0826 12.0107 69.7546 11.648C70.4266 11.2747 71.1786 11.088 72.0106 11.088C72.8426 11.088 73.5946 11.2747 74.2666 11.648C74.9386 12.0107 75.4666 12.5333 75.8506 13.216C76.2453 13.8987 76.4426 14.6933 76.4426 15.6C76.4426 16.5067 76.24 17.3067 75.8346 18C75.44 18.6827 74.9013 19.2107 74.2186 19.584C73.536 19.9573 72.7786 20.144 71.9466 20.144ZM71.9466 18.864C72.4693 18.864 72.96 18.7413 73.4186 18.496C73.8773 18.2507 74.2453 17.8827 74.5226 17.392C74.8106 16.9013 74.9546 16.304 74.9546 15.6C74.9546 14.896 74.816 14.2987 74.5386 13.808C74.2613 13.3173 73.8986 12.9547 73.4506 12.72C73.0026 12.4747 72.5173 12.352 71.9946 12.352C71.4613 12.352 70.9706 12.4747 70.5226 12.72C70.0853 12.9547 69.7333 13.3173 69.4666 13.808C69.2 14.2987 69.0666 14.896 69.0666 15.6C69.0666 16.3147 69.1946 16.9173 69.4506 17.408C69.7173 17.8987 70.0693 18.2667 70.5066 18.512C70.944 18.7467 71.424 18.864 71.9466 18.864ZM80.133 12.432V17.6C80.133 18.0267 80.2237 18.3307 80.405 18.512C80.5863 18.6827 80.901 18.768 81.349 18.768H82.421V20H81.109C80.2983 20 79.6903 19.8133 79.285 19.44C78.8797 19.0667 78.677 18.4533 78.677 17.6V12.432H77.541V11.232H78.677V9.024H80.133V11.232H82.421V12.432H80.133ZM84.9371 9.808C84.6598 9.808 84.4251 9.712 84.2331 9.52C84.0411 9.328 83.9451 9.09333 83.9451 8.816C83.9451 8.53867 84.0411 8.304 84.2331 8.112C84.4251 7.92 84.6598 7.824 84.9371 7.824C85.2038 7.824 85.4278 7.92 85.6091 8.112C85.8011 8.304 85.8971 8.53867 85.8971 8.816C85.8971 9.09333 85.8011 9.328 85.6091 9.52C85.4278 9.712 85.2038 9.808 84.9371 9.808ZM85.6411 11.232V20H84.1851V11.232H85.6411ZM87.5786 15.6C87.5786 14.6933 87.76 13.904 88.1226 13.232C88.4853 12.5493 88.9866 12.0213 89.6266 11.648C90.2773 11.2747 91.0186 11.088 91.8506 11.088C92.928 11.088 93.8133 11.3493 94.5066 11.872C95.2106 12.3947 95.6746 13.12 95.8986 14.048H94.3306C94.1813 13.5147 93.888 13.0933 93.4506 12.784C93.024 12.4747 92.4906 12.32 91.8506 12.32C91.0186 12.32 90.3466 12.608 89.8346 13.184C89.3226 13.7493 89.0666 14.5547 89.0666 15.6C89.0666 16.656 89.3226 17.472 89.8346 18.048C90.3466 18.624 91.0186 18.912 91.8506 18.912C92.4906 18.912 93.024 18.7627 93.4506 18.464C93.8773 18.1653 94.1706 17.7387 94.3306 17.184H95.8986C95.664 18.08 95.1946 18.8 94.4906 19.344C93.7866 19.8773 92.9066 20.144 91.8506 20.144C91.0186 20.144 90.2773 19.9573 89.6266 19.584C88.9866 19.2107 88.4853 18.6827 88.1226 18C87.76 17.3173 87.5786 16.5173 87.5786 15.6ZM105.841 15.28C105.841 15.5573 105.825 15.8507 105.793 16.16H98.7854C98.8387 17.024 99.132 17.7013 99.6654 18.192C100.209 18.672 100.865 18.912 101.633 18.912C102.263 18.912 102.785 18.768 103.201 18.48C103.628 18.1813 103.927 17.7867 104.097 17.296H105.665C105.431 18.1387 104.961 18.8267 104.257 19.36C103.553 19.8827 102.679 20.144 101.633 20.144C100.801 20.144 100.055 19.9573 99.3934 19.584C98.7427 19.2107 98.2307 18.6827 97.8574 18C97.484 17.3067 97.2974 16.5067 97.2974 15.6C97.2974 14.6933 97.4787 13.8987 97.8414 13.216C98.204 12.5333 98.7107 12.0107 99.3614 11.648C100.023 11.2747 100.78 11.088 101.633 11.088C102.465 11.088 103.201 11.2693 103.841 11.632C104.481 11.9947 104.972 12.496 105.313 13.136C105.665 13.7653 105.841 14.48 105.841 15.28ZM104.337 14.976C104.337 14.4213 104.215 13.9467 103.969 13.552C103.724 13.1467 103.388 12.8427 102.961 12.64C102.545 12.4267 102.081 12.32 101.569 12.32C100.833 12.32 100.204 12.5547 99.6814 13.024C99.1694 13.4933 98.876 14.144 98.8014 14.976H104.337Z" fill="white"/>
</svg>
