<svg width="46" height="134" viewBox="0 0 46 134" fill="none" xmlns="http://www.w3.org/2000/svg">
<path d="M0.392004 127.248L45 127.248L45 133.072L0.392004 133.072L0.392004 127.248ZM27.336 102.435C23.752 102.435 20.616 101.71 17.928 100.259C15.1973 98.8088 13.0853 96.8248 11.592 94.3075C10.0987 91.7475 9.352 88.9102 9.352 85.7955C9.352 82.7235 10.0133 80.0568 11.336 77.7955C12.6587 75.5342 14.3227 73.8488 16.328 72.7395L9.928 72.7395L9.928 66.8515L45 66.8515L45 72.7395L38.472 72.7395C40.52 73.8915 42.2267 75.6195 43.592 77.9235C44.9147 80.1848 45.576 82.8302 45.576 85.8595C45.576 88.9742 44.808 91.7902 43.272 94.3075C41.736 96.8248 39.5813 98.8088 36.808 100.259C34.0347 101.71 30.8773 102.435 27.336 102.435ZM27.4 72.7395C24.7547 72.7395 22.4507 73.2728 20.488 74.3395C18.5253 75.4062 17.032 76.8568 16.008 78.6915C14.9413 80.4835 14.408 82.4675 14.408 84.6435C14.408 86.8195 14.92 88.8035 15.944 90.5955C16.968 92.3875 18.4613 93.8168 20.424 94.8835C22.3867 95.9502 24.6907 96.4835 27.336 96.4835C30.024 96.4835 32.3707 95.9502 34.376 94.8835C36.3387 93.8168 37.8533 92.3875 38.92 90.5955C39.944 88.8035 40.456 86.8195 40.456 84.6435C40.456 82.4675 39.944 80.4835 38.92 78.6915C37.8533 76.8568 36.3387 75.4062 34.376 74.3395C32.3707 73.2728 30.0453 72.7395 27.4 72.7395ZM9.288 14.8335C9.288 12.1028 9.864 9.67083 11.016 7.5375C12.1253 5.40416 13.8107 3.71883 16.072 2.4815C18.3333 1.24416 21.0853 0.625494 24.328 0.625494L45 0.625493L45 6.3855L25.16 6.3855C21.6613 6.3855 18.9947 7.26016 17.16 9.0095C15.2827 10.7162 14.344 13.0415 14.344 15.9855C14.344 19.0148 15.3253 21.4255 17.288 23.2175C19.208 25.0095 22.0027 25.9055 25.672 25.9055L45 25.9055L45 31.6655L25.16 31.6655C21.6613 31.6655 18.9947 32.5402 17.16 34.2895C15.2827 35.9962 14.344 38.3215 14.344 41.2655C14.344 44.2948 15.3253 46.7055 17.288 48.4975C19.208 50.2895 22.0027 51.1855 25.672 51.1855L45 51.1855L45 57.0095L9.928 57.0095L9.928 51.1855L14.984 51.1855C13.1493 50.0335 11.7413 48.4975 10.76 46.5775C9.77867 44.6148 9.288 42.4602 9.288 40.1135C9.288 37.1695 9.94933 34.5668 11.272 32.3055C12.5947 30.0442 14.536 28.3588 17.096 27.2495C14.6213 26.2682 12.7013 24.6468 11.336 22.3855C9.97067 20.1242 9.288 17.6068 9.288 14.8335Z" fill="white"/>
</svg>
