<svg width="46" height="45" viewBox="0 0 46 45" fill="none" xmlns="http://www.w3.org/2000/svg">
<path d="M45.7521 3.58117C45.4247 1.86221 44.0945 0.470668 42.396 0.102319C42.3142 0.0818554 42.2323 0.0818554 42.13 0.0613915C42.1096 0.0613915 42.0891 0.0204638 42.0686 0H4.53794C4.51748 0.0204638 4.49701 0.0613915 4.45608 0.0613915C2.75759 0.347885 1.32512 1.6985 0.936304 3.41746C0.91584 3.47885 0.874912 3.56071 0.833984 3.64256V41.2756C0.854448 41.3165 0.895376 41.337 0.895376 41.3779C1.30465 43.2606 2.45063 44.427 4.31284 44.8977C4.37423 44.9181 4.41516 44.9591 4.45608 45H42.13C42.1709 44.9795 42.1914 44.9386 42.2323 44.9181C44.0945 44.4884 45.2405 43.3629 45.7112 41.5007C45.7317 41.4393 45.7112 41.3574 45.7317 41.296C45.7317 41.2756 45.7726 41.2551 45.793 41.2347V3.70396C45.793 3.66303 45.7521 3.64257 45.7521 3.58117ZM26.9254 24.9454H26.7003C25.0018 24.9454 23.2828 24.9454 21.5843 24.9454C21.5025 24.9454 21.4206 24.9454 21.3388 24.9454C21.3388 24.9659 21.3183 24.9659 21.3183 24.9864C21.3183 25.0682 21.3183 25.1501 21.3183 25.2319V41.0096H16.8367V24.9659H11.2092V21.3847H26.9049V24.9454H26.9254ZM42.0277 35.648C41.9868 36.3438 41.8844 37.0191 41.598 37.6739C41.5161 37.8786 41.4547 38.0628 41.3524 38.2674C40.984 39.045 40.3701 39.5975 39.6539 40.0477C38.8353 40.5593 37.9349 40.8458 36.9936 41.03C35.9499 41.2347 34.9063 41.296 33.8422 41.2551C33.3306 41.2347 32.819 41.2347 32.3074 41.1733C31.1 41.03 29.9131 40.764 28.8081 40.2319C28.7467 40.2115 28.6648 40.1091 28.6648 40.0477C28.6648 38.7176 28.6648 37.3875 28.6648 36.0573C28.6648 36.0368 28.6648 36.0164 28.6648 35.9754C28.9922 36.2005 29.3197 36.4256 29.6471 36.6098C30.4452 37.0805 31.3251 37.4079 32.2255 37.6126C33.0031 37.7967 33.7808 37.8172 34.5584 37.7763C35.1518 37.7558 35.7453 37.6126 36.2774 37.3465C36.748 37.101 37.1368 36.7735 37.2392 36.221C37.3415 35.7299 37.3005 35.2387 37.0141 34.809C36.6048 34.1951 36.0318 33.8063 35.3974 33.4789C34.6812 33.131 33.9649 32.824 33.2282 32.4966C32.1437 32.0055 31.0795 31.4734 30.1996 30.6548C29.4834 29.9795 28.9513 29.1814 28.7057 28.2196C28.5625 27.6467 28.5216 27.0737 28.542 26.5007C28.5625 25.0887 29.0741 23.8813 30.0768 22.8786C30.8954 22.06 31.8981 21.5689 33.0031 21.2824C33.7603 21.0982 34.5175 20.955 35.2951 20.9345C35.8476 20.9345 36.4001 20.8731 36.9322 20.8936C37.7712 20.9141 38.5898 20.955 39.4083 21.1596C39.9404 21.3029 40.4929 21.4461 41.025 21.5689C41.1273 21.5894 41.1682 21.6508 41.1682 21.7735C41.1682 23.0423 41.1682 24.3315 41.1682 25.6003C41.1682 25.6412 41.1682 25.6821 41.1478 25.7435C40.984 25.6412 40.8408 25.5593 40.6975 25.4775C40.0427 25.1091 39.3469 24.8636 38.6307 24.6794C37.8326 24.4952 37.0345 24.3724 36.216 24.3929C35.6634 24.4134 35.0905 24.4952 34.5789 24.6794C33.9445 24.9045 33.4329 25.2729 33.2078 25.9482C33.0236 26.4802 33.1669 26.9304 33.4943 27.3602C33.9036 27.8922 34.4561 28.2606 35.0495 28.5471C35.8476 28.9359 36.6662 29.2633 37.4438 29.6317C38.3442 30.0614 39.2446 30.4911 40.0018 31.1255C40.6566 31.678 41.2501 32.292 41.5775 33.1105C41.7617 33.6016 41.9254 34.1132 41.9254 34.6658C42.0072 34.9932 42.0482 35.3206 42.0277 35.648Z" fill="white"/>
</svg>
