<svg width="43" height="45" viewBox="0 0 43 45" fill="none" xmlns="http://www.w3.org/2000/svg">
<path d="M15.8027 41.1688C12.7702 40.3159 10.1033 38.7455 7.77475 36.5523C7.04371 36.8096 6.29912 37.0668 5.541 37.3105C5.18901 37.4188 4.83703 37.3782 4.47151 37.2428C3.82169 36.9991 3.42909 36.5253 3.14479 35.9431C2.75219 35.1715 2.25129 34.4675 1.85869 33.6958C1.50671 32.9783 0.992265 32.3556 0.694431 31.611C0.545514 31.2455 0.152915 31.0018 0.152915 30.5415C-0.19907 29.9729 0.139377 29.472 0.342446 28.9711C0.396597 28.8357 0.464287 28.6597 0.586128 28.6056C1.07349 28.389 1.31717 27.9016 1.72331 27.6038C1.91284 27.4684 2.11591 27.3195 2.33252 27.157C2.02115 25.6002 1.75039 24.0433 1.75039 22.4458C1.75039 20.8619 2.03468 19.3321 2.33252 17.8159C1.80454 17.3285 1.31717 16.8547 0.802734 16.4079C0.274756 15.9477 -0.0366156 15.3791 0.0310739 14.7834C0.0716876 14.4585 0.166453 14.1065 0.328908 13.8357C0.82981 13.037 1.2901 12.1977 1.77746 11.3854C2.17006 10.7356 2.50851 10.0587 2.94172 9.42238C3.17187 9.09747 3.30725 8.71841 3.53739 8.37996C3.98414 7.74368 4.87764 7.43231 5.60869 7.64892C6.25851 7.83845 6.86771 8.12274 7.53107 8.24459C7.59876 8.25812 7.65291 8.35289 7.7206 8.42058C10.0627 6.24097 12.7296 4.68412 15.7892 3.77708C15.911 3.41155 15.9381 3.01895 16.087 2.63989C16.1953 2.3556 16.1683 2.00361 16.2224 1.69224C16.3713 0.879964 16.8722 0.406137 17.5897 0.162455C17.847 0.0812274 18.1042 0 18.4155 0C20.3109 0.0270758 22.2062 0.0270758 24.1015 0C24.643 0 25.1033 0.216607 25.5365 0.460289C25.9291 0.663357 26.1457 1.09657 26.254 1.50271C26.4435 2.24729 26.5518 3.00542 26.7007 3.79061C29.7468 4.65704 32.4137 6.2139 34.7423 8.40704C35.4733 8.14982 36.2179 7.8926 36.976 7.64892C37.328 7.54061 37.68 7.58123 38.0455 7.71661C38.6953 7.96029 39.0879 8.43412 39.3722 9.01624C39.7648 9.78791 40.2657 10.4919 40.6583 11.2635C41.0103 11.981 41.5247 12.6038 41.8226 13.3484C41.9715 13.7139 42.3641 13.9576 42.3641 14.4179C42.7161 14.9865 42.3776 15.4874 42.1746 15.9883C42.1204 16.1236 42.0527 16.2996 41.9309 16.3538C41.4435 16.5704 41.1998 17.0578 40.7937 17.3556C40.6042 17.491 40.4011 17.6399 40.1845 17.8023C40.4959 19.3592 40.7666 20.9161 40.7666 22.5135C40.7666 24.0975 40.5229 25.6273 40.1845 27.1435C40.7125 27.6309 41.1998 28.1047 41.7143 28.5514C42.2423 29.0117 42.5536 29.5803 42.4859 30.176C42.4453 30.5009 42.3641 30.8529 42.1881 31.1236C41.7007 31.9088 41.2405 32.7211 40.7666 33.5199C40.171 34.5081 39.6836 35.5776 38.9932 36.5117C38.8713 37.0262 38.384 37.0668 38.032 37.2563C37.6529 37.4594 37.2738 37.4052 36.8542 37.2834C36.2314 37.1074 35.6358 36.796 34.9859 36.7148C34.9183 36.7013 34.8641 36.6065 34.7964 36.5388C32.4544 38.7455 29.8009 40.3159 26.7007 41.1958C26.5518 41.9269 26.4164 42.685 26.254 43.4296C26.0915 44.1606 25.6042 44.6209 24.9137 44.8375C24.6565 44.9188 24.3858 45 24.0879 45C22.1926 44.9729 20.2973 44.9729 18.402 45C17.8605 45 17.4002 44.7834 16.967 44.5397C16.5744 44.3366 16.3442 43.9034 16.263 43.4973C16.1141 42.6986 15.9652 41.954 15.8027 41.1688ZM16.6827 29.2419C16.9535 29.093 17.2648 28.9982 17.2784 28.6733C17.3054 28.1859 17.3731 27.685 17.2648 27.2247C17.0753 26.4395 16.7368 25.6814 16.5338 24.8962C16.3984 24.3953 16.1006 23.9215 16.1141 23.38C15.6809 22.3105 15.4101 21.1868 15.0446 20.1038C14.7468 19.2103 14.5302 18.2897 14.2053 17.4097C14.0293 16.9224 13.9887 16.3809 13.6637 15.9477C13.6367 15.907 13.6231 15.88 13.6231 15.88C13.2576 15.6363 12.8785 15.7175 12.5536 15.7175C12.3641 15.8935 12.2016 16.0424 12.0527 16.1778C12.0392 16.611 11.7278 16.9495 11.782 17.3691C11.3081 18.4251 11.1051 19.5623 10.7125 20.6453C10.5094 21.2004 10.3876 21.769 10.2251 22.3375C10.0762 22.9061 9.75129 23.4206 9.75129 24.0298C9.23685 25.1805 8.97963 26.4125 8.60057 27.6173C8.5058 27.9152 8.45165 28.1995 8.64118 28.4838C8.69533 28.565 8.66826 28.6868 8.66826 28.6733C8.88486 28.9034 9.04732 29.0659 9.1827 29.2283C9.43992 29.2283 9.71068 29.2283 9.99497 29.2283C10.1845 28.9847 10.374 28.7545 10.55 28.5244C10.5094 27.7527 10.6719 27.2383 11.0239 26.4125C12.3506 26.4125 13.6773 26.4125 15.004 26.4125C15.1123 26.8457 15.1664 27.2653 15.3154 27.6579C15.3831 27.8204 15.4507 27.9829 15.4237 28.1453C15.3831 28.6462 15.5455 29.0388 16.1141 29.2283C16.2495 29.2419 16.4526 29.2419 16.6827 29.2419ZM19.8506 29.2419C20.2161 29.2148 20.6358 29.3231 20.9336 29.0253C21.0419 28.8899 21.1367 28.7545 21.272 28.565C21.272 27.2112 21.272 25.7897 21.272 24.3682C22.2603 24.3682 23.235 24.3276 24.1962 24.3818C24.7784 24.4088 25.2522 24.2329 25.7125 23.9486C25.9291 23.8132 26.1186 23.6101 26.3081 23.4206C26.809 22.9332 27.0527 22.3375 27.0663 21.6336C27.0663 20.5235 27.0663 19.4269 27.0663 18.3168C27.0663 18.1543 27.0257 17.9783 26.985 17.8159C26.8361 17.2338 26.5247 16.8005 26.1051 16.4215C25.6177 15.9747 25.0491 15.704 24.3722 15.704C22.856 15.704 21.3533 15.704 19.8235 15.704C19.6746 15.8664 19.5257 16.0289 19.3497 16.1913C19.3497 20.361 19.3497 24.5578 19.3497 28.7681C19.5257 28.917 19.6881 29.0794 19.8506 29.2419ZM29.5979 29.2419C30.532 29.2419 31.4796 29.2419 32.4137 29.2419C32.5762 29.0794 32.7386 28.917 32.9011 28.7681C32.9011 28.5108 32.9011 28.2671 32.9011 28.0099C32.9011 27.9829 32.9011 27.9693 32.9011 27.9558C32.698 27.5767 32.3867 27.3466 31.9805 27.306C31.9805 24.0704 31.9805 20.8484 31.9805 17.694C32.2784 17.5451 32.5356 17.4097 32.8334 17.2473C32.874 16.8953 32.9011 16.5298 32.9282 16.2726C32.7116 16.0289 32.5627 15.8529 32.4408 15.7175C31.4661 15.7175 30.5184 15.7175 29.6791 15.7175C29.4489 15.9206 29.2865 16.0695 29.0834 16.259C29.124 16.5839 29.1782 16.9495 29.2188 17.2608C29.5437 17.4233 29.8009 17.5587 30.0311 17.6805C30.0311 20.9025 30.0311 24.1245 30.0311 27.3195C29.8957 27.3466 29.7468 27.3195 29.6926 27.3872C29.5031 27.5767 29.1782 27.6309 29.1105 27.9422C29.1105 28.213 29.1105 28.4838 29.1105 28.7545C29.2729 28.917 29.4354 29.0794 29.5979 29.2419Z" fill="white"/>
<path d="M14.2865 24.3414C13.4878 24.3685 12.6484 24.382 11.8091 24.4091C11.782 24.4091 11.7414 24.4632 11.6602 24.5309C11.6737 23.6916 12.1475 23.0147 12.2017 22.243C12.6078 21.5661 12.6484 20.7674 12.9192 20.0093C13.0004 20.0905 13.1223 20.1717 13.1223 20.2394C13.1358 20.8216 13.4742 21.3225 13.5825 21.8775C13.6638 22.2566 13.8804 22.6221 13.9345 23.0012C13.9887 23.4885 14.3136 23.854 14.2865 24.3414Z" fill="white"/>
<path d="M25.1846 21.7158C25.0898 21.8647 25.0086 22.0136 24.9003 22.149C24.7107 22.3656 24.4671 22.4874 24.1557 22.4739C23.208 22.4604 22.2604 22.4739 21.2856 22.4739C21.2856 20.8629 21.2856 19.2519 21.2856 17.6003C22.2739 17.6003 23.2893 17.5867 24.2911 17.6003C24.7649 17.6138 25.171 18.1012 25.1846 18.6156C25.1846 19.4685 25.1846 20.3214 25.1846 21.1743C25.1846 21.3638 25.1846 21.5398 25.1846 21.7158Z" fill="white"/>
</svg>
