<svg width="41" height="45" viewBox="0 0 41 45" fill="none" xmlns="http://www.w3.org/2000/svg">
<path d="M0.514513 0.00792943C0.514513 0.182377 0.506577 0.301318 0.514513 0.42026C0.816086 3.7189 1.11766 7.01755 1.4113 10.3241C1.82397 15.0025 2.22872 19.6808 2.64139 24.3513C3.10963 29.6006 3.58579 34.8419 4.03815 40.0912C4.0699 40.4718 4.20481 40.6383 4.56194 40.7335C9.64106 42.1291 14.7043 43.5326 19.7834 44.9202C20.1247 45.0154 20.5374 45.0312 20.8786 44.9361C25.9736 43.5405 31.0607 42.1211 36.1556 40.7176C36.5445 40.6066 36.6794 40.4322 36.7112 40.0357C36.8699 38.0533 37.0604 36.063 37.235 34.0807C37.5286 30.7979 37.8143 27.5151 38.1079 24.2323C38.4492 20.3786 38.7984 16.5329 39.1396 12.6792C39.3936 9.8087 39.6634 6.94618 39.9174 4.07573C40.0364 2.72772 40.1396 1.37972 40.2507 0H0.514513V0.00792943ZM32.5844 11.458C32.3225 14.3602 32.0606 17.2703 31.7987 20.1725C31.4971 23.5108 31.1956 26.849 30.894 30.1794C30.8067 31.1389 30.6797 32.0983 30.6559 33.0657C30.64 33.5811 30.4178 33.7159 29.9893 33.8349C26.9259 34.6595 23.8705 35.508 20.8151 36.3485C20.6802 36.3881 20.5532 36.4357 20.4183 36.4754C20.3707 36.4516 20.3231 36.4357 20.2675 36.4119C16.9978 35.5238 13.7282 34.6278 10.4585 33.7239C10.3236 33.6842 10.149 33.4701 10.1331 33.3195C9.90295 30.8455 9.69661 28.3715 9.4744 25.8499H14.4662C14.5535 26.8411 14.6488 27.8482 14.7281 28.8631C14.7995 29.7988 14.7916 29.7988 15.6725 30.0367C17.2518 30.4569 18.839 30.8693 20.4183 31.2816L20.4024 31.2419C22.1325 30.782 23.8626 30.3301 25.5927 29.8384C25.7514 29.7909 25.9339 29.5371 25.9577 29.3627C26.0609 28.6014 26.1164 27.8323 26.1799 27.0711C26.2831 25.842 26.3863 24.6129 26.4974 23.3284H20.4024L20.4183 23.2967C20.3786 23.2967 20.331 23.2967 20.2913 23.2967H9.24425C9.09346 21.6553 8.95061 20.0297 8.79983 18.3566H20.2993C20.339 18.3566 20.3866 18.3566 20.4262 18.3566L20.4104 18.3249H26.9418C27.0926 16.6201 27.2434 14.9549 27.3942 13.258H20.4024L20.4183 13.2263C20.3786 13.2263 20.331 13.2263 20.2913 13.2263C16.3788 13.2342 12.4663 13.2342 8.55381 13.2421C8.49825 13.2421 8.4427 13.2184 8.33953 13.1866C8.19668 11.569 8.04589 9.95143 7.90304 8.28625H20.2913C20.331 8.28625 20.3786 8.28625 20.4183 8.28625L20.4024 8.25453H32.8463C32.759 9.36466 32.6717 10.4113 32.5844 11.458Z" fill="white"/>
</svg>
