<svg width="46" height="45" viewBox="0 0 46 45" fill="none" xmlns="http://www.w3.org/2000/svg">
<path d="M44.6728 20.5179L24.9991 0.844209C23.8735 -0.281403 22.0138 -0.281403 20.8882 0.844209L16.8262 4.9062L22.0138 10.0938C23.2373 9.70228 24.6076 9.94698 25.5374 10.9258C26.5162 11.9046 26.7609 13.2749 26.3694 14.4984L31.3612 19.4902C32.5847 19.0987 33.955 19.3434 34.9338 20.3222C36.3041 21.6436 36.3041 23.8458 34.9338 25.2162C33.5635 26.5865 31.4102 26.5865 30.0399 25.2162C29.0121 24.1884 28.7674 22.7202 29.3058 21.4478L24.6565 16.7985V29.0334C24.9991 29.1803 25.2927 29.425 25.5864 29.6697C26.9567 30.991 26.9567 33.1933 25.5864 34.5636C24.2161 35.885 22.0627 35.885 20.6924 34.5636C19.3221 33.1933 19.3221 31.04 20.6924 29.6697C21.035 29.3271 21.4265 29.0824 21.818 28.9356V16.5538C21.4265 16.407 21.035 16.1134 20.6924 15.8197C19.6647 14.792 19.42 13.3238 19.9583 12.0514L14.8196 6.96166L1.36124 20.4201C0.235626 21.5457 0.235626 23.4054 1.36124 24.531L20.986 44.1558C22.1116 45.2814 23.9714 45.2814 25.097 44.1558L44.6239 24.6289C45.7984 23.4543 45.7984 21.6436 44.6728 20.5179Z" fill="white"/>
</svg>
