<svg width="46" height="45" viewBox="0 0 46 45" fill="none" xmlns="http://www.w3.org/2000/svg">
<path d="M0.518005 0C15.5281 0 30.5079 0 45.518 0C45.518 15.0101 45.518 30.0203 45.518 45C30.5383 45 15.5281 45 0.518005 45C0.518005 29.9595 0.518005 14.9797 0.518005 0ZM40.778 23.8217C39.8664 22.181 38.6206 21.0567 36.8279 20.6617C35.5518 20.3579 34.2756 20.3579 32.9994 20.6313C28.8671 21.4821 27.1048 26.4652 29.7786 29.7772C30.7206 30.9318 31.9663 31.6307 33.2729 32.2383C34.4275 32.7853 35.6125 33.3018 36.7672 33.8791C37.5572 34.2741 37.8914 35.0034 37.8002 35.8845C37.7091 36.7657 37.1014 37.2519 36.3418 37.5253C34.6402 38.133 32.6652 37.5861 31.5106 36.158C31.2675 35.8542 31.0244 35.5199 30.7813 35.1857C29.6267 35.8542 28.5025 36.4922 27.3782 37.1607C28.0771 38.528 29.0494 39.6219 30.3863 40.3511C32.6652 41.5969 35.0656 41.7792 37.5268 41.1715C39.1372 40.7765 40.5045 39.9561 41.3553 38.4673C42.9353 35.6415 42.0237 32.1168 39.2283 30.3849C37.9826 29.6253 36.5848 29.1087 35.2783 28.4402C34.6402 28.106 33.9717 27.8022 33.4248 27.3768C32.4525 26.5868 32.6348 25.0068 33.7287 24.3991C34.7921 23.7914 36.281 24.156 37.1014 25.2194C37.2837 25.4321 37.4052 25.6752 37.5875 25.9183C38.6206 25.2194 39.6841 24.5206 40.778 23.8217ZM12.3681 37.6165C12.9758 38.923 13.857 39.9561 15.1027 40.6246C16.7131 41.5057 18.4755 41.6577 20.2682 41.3842C21.8786 41.1411 23.2155 40.4119 24.0967 38.9534C24.8259 37.738 25.0386 36.4011 25.0386 34.973C25.0386 30.3545 25.0386 25.736 25.0386 21.1175C25.0386 20.9959 25.0386 20.844 25.0386 20.6921C23.6105 20.6921 22.2432 20.6921 20.8151 20.6921C20.8151 20.8744 20.8151 21.0263 20.8151 21.2086C20.8151 25.7664 20.8151 30.2937 20.8151 34.8514C20.8151 35.2768 20.7847 35.7326 20.7239 36.158C20.6024 36.8569 20.2378 37.3734 19.5389 37.5861C18.2324 37.9811 17.1689 37.5861 16.4093 36.4618C16.227 36.158 16.0447 35.8542 15.832 35.5503C14.647 36.2492 13.5227 36.9176 12.3681 37.6165Z" fill="white"/>
</svg>
