<svg width="49" height="45" viewBox="0 0 49 45" fill="none" xmlns="http://www.w3.org/2000/svg">
<g clip-path="url(#clip0_177_1763)">
<path fill-rule="evenodd" clip-rule="evenodd" d="M47.8027 11.8229L43.5423 17.7812L39.2819 11.8229H41.6048C41.4277 7.39583 37.7715 3.85417 33.3027 3.85417C29.5319 3.85417 26.334 6.38541 25.3236 9.83333C24.0944 9.4375 22.8236 9.1875 21.5319 9.07291C21.6778 8.52083 21.8653 7.96875 22.0944 7.4375C22.709 5.98958 23.584 4.6875 24.6986 3.57292C25.8132 2.45833 27.1153 1.57292 28.5632 0.96875C30.0632 0.322917 31.6569 0 33.3027 0C34.9486 0 36.5423 0.322917 38.0423 0.958333C39.4902 1.57292 40.7923 2.44792 41.9069 3.5625C43.0215 4.67708 43.8965 5.97916 44.5111 7.42708C45.1048 8.82291 45.4277 10.3021 45.459 11.8229H47.8027Z" fill="white"/>
<path fill-rule="evenodd" clip-rule="evenodd" d="M41.8444 44.9999V42.4374H27.1569C27.2611 42.3853 27.3653 42.3437 27.4694 42.2916C29.0632 41.5312 30.5319 40.5416 31.8444 39.3333C32.0215 39.1666 32.1882 39.0103 32.3444 38.8541C32.5215 38.677 32.709 38.4895 32.8861 38.2916C33.0944 38.0624 33.3028 37.8228 33.4903 37.5833H41.8444V35.0208L48.8236 40.0103L41.8444 44.9999Z" fill="white"/>
<path fill-rule="evenodd" clip-rule="evenodd" d="M36.4278 26.4897C36.4278 28.7084 35.9903 30.8647 35.1361 32.8959C34.4069 34.6251 33.3861 36.2084 32.1153 37.5938C31.9486 37.7709 31.7819 37.948 31.6153 38.1251C31.459 38.2813 31.3028 38.4272 31.1465 38.5834C29.9173 39.7188 28.5423 40.6459 27.0423 41.3647C26.834 41.4688 26.6153 41.5626 26.3965 41.6563C26.3861 41.6563 26.3861 41.6667 26.3757 41.6667C25.1257 42.198 23.7819 42.4584 22.4173 42.4584H0.750671V37.6147H20.8653C26.9486 37.6147 31.9382 32.7501 32.0215 26.6667C32.0215 26.6147 32.0215 26.5626 32.0215 26.5105C32.0215 19.8647 26.6257 14.4688 19.9798 14.4688C13.334 14.448 7.93817 19.8334 7.93817 26.4897H10.7298L5.74026 33.4688L0.750671 26.4897H3.54234C3.54234 24.2709 3.97984 22.1147 4.83401 20.0834C5.66734 18.1251 6.84442 16.3647 8.35484 14.8542C9.86526 13.3438 11.6257 12.1563 13.584 11.3334C15.6153 10.4792 17.7715 10.0417 19.9903 10.0417C20.4382 10.0417 20.8757 10.0626 21.3132 10.0938C22.6048 10.198 23.8653 10.448 25.0944 10.8542C25.5319 11.0001 25.959 11.1563 26.3861 11.3438C28.3444 12.1772 30.1048 13.3542 31.6153 14.8647C33.1257 16.3751 34.3132 18.1355 35.1361 20.0938C35.9903 22.1147 36.4278 24.2709 36.4278 26.4897Z" fill="white"/>
</g>
<defs>
<clipPath id="clip0_177_1763">
<rect width="48.0833" height="45" fill="white" transform="translate(0.750671)"/>
</clipPath>
</defs>
</svg>
