<svg width="829" height="823" viewBox="0 0 829 823" fill="none" xmlns="http://www.w3.org/2000/svg">
<g filter="url(#filter0_f_230_440)">
<path d="M143.299 282.896C157.739 178.692 293.672 139.951 307.651 137.093C307.651 137.093 380.484 21.987 378.124 166.546C375.764 311.104 526.433 138.124 568.972 200.764C610.273 261.582 376.146 418.039 536.952 386.27C697.757 354.501 784.337 252.05 707.374 419.189C630.411 586.328 549.31 751.876 374.043 726.599C363.136 725.026 344.178 716.615 321.09 704.356C305.429 706.014 271.378 689.084 210.858 645.715C-53.6565 456.16 195.157 637.491 321.09 704.356C386.427 697.436 131.65 366.952 143.299 282.896Z" fill="#1CDAE6"/>
</g>
<defs>
<filter id="filter0_f_230_440" x="0.76825" y="0.659668" width="828.063" height="821.508" filterUnits="userSpaceOnUse" color-interpolation-filters="sRGB">
<feFlood flood-opacity="0" result="BackgroundImageFix"/>
<feBlend mode="normal" in="SourceGraphic" in2="BackgroundImageFix" result="shape"/>
<feGaussianBlur stdDeviation="46.5" result="effect1_foregroundBlur_230_440"/>
</filter>
</defs>
</svg>
