<svg width="60" height="60" viewBox="0 0 60 60" fill="none" xmlns="http://www.w3.org/2000/svg">
<path d="M24.8829 2C28.5953 2.1 31.6054 5.2 31.6054 8.9V10.7V12.7H33.612H42.1405H42.2408C42.9431 12.7 43.6455 12.8 44.2475 13.1C44.8495 13.3 45.3512 13.7 45.7525 14.1L45.9532 14.3C46.4549 14.8 46.8562 15.4 47.1572 16C47.4582 16.6 47.5585 17.3 47.5585 18.1V26.6V28.6H49.5652H51.3712C55.1839 28.6 58.2943 31.6 58.2943 35.3C58.2943 39.1 55.2843 42.2 51.4716 42.2H49.5652H47.5585V44.2V52.7C47.5585 55.7 45.1505 58.1 42.2408 58.1H32.107V54C32.107 53.2 31.9064 52.3 31.6054 51.6C31.3043 50.8 30.8027 50.2 30.2007 49.6C28.796 48.2 26.7893 47.5 24.7826 47.5H24.6823C23.0769 47.5 21.4716 48 20.1672 48.9H20.0669L19.4649 49.4C18.0602 50.7 17.2575 52.3 17.2575 54.2V58.2H7.52508C6.22074 58.2 4.81605 57.7 3.91304 56.8L3.71237 56.6C2.70903 55.6 2.10702 54.2 2.10702 52.8V43H6.22074C8.02676 43 9.73244 42.3 11.0368 40.9C11.7391 40.2 12.3411 39.3 12.7425 38.4C13.1438 37.5 13.3445 36.5 13.3445 35.5C13.1438 31.3 9.83278 28 6.02007 28H2.00669V18C2.00669 17.3 2.10702 16.6 2.40803 15.9C2.70903 15.2 3.11037 14.7 3.61204 14.2C4.61538 13.2 6.02007 12.7 7.52508 12.7H16.0535H18.0602V10.7V8.8C18.0602 7.9 18.2609 7 18.5619 6.2V6C18.9632 5.2 19.3645 4.5 19.9666 3.9C20.5686 3.3 21.3712 2.8 22.1739 2.4C23.0769 2.2 23.9799 2 24.8829 2ZM24.8829 0C23.7793 0 22.5753 0.2 21.5719 0.6C20.4682 1 19.4649 1.7 18.6622 2.5C17.8595 3.3 17.1572 4.3 16.7559 5.4C16.3545 6.5 16.0535 7.6 16.0535 8.8V10.7H7.52508C5.61873 10.7 3.71237 11.4 2.30769 12.8C1.60535 13.5 1.00334 14.3 0.702341 15.2C0.200669 16.1 0 17.1 0 18V30H6.02007C8.7291 30 11.1371 32.4 11.1371 35.2C11.1371 35.9 11.0368 36.7 10.7358 37.4C10.4348 38.1 10.0334 38.7 9.53177 39.2C8.62876 40.1 7.42475 40.7 6.1204 40.7H0V52.5C0 54.5 0.802676 56.4 2.20736 57.8C3.61204 59.2 5.51839 60 7.52508 60H19.3645V54C19.3645 52.4 20.1672 51.3 20.8696 50.7C21.9732 49.8 23.2776 49.3 24.6823 49.3H24.7826C26.2876 49.3 27.7926 49.9 28.796 50.9C29.1973 51.3 29.4983 51.8 29.699 52.3C29.8997 52.8 30 53.4 30 53.9V60H41.9398C45.9532 60 49.2642 56.7 49.2642 52.6V44.1H51.1706C55.9866 44.1 60 40.1 60 35.2C60 30.4 55.9866 26.5 51.0702 26.5H49.2642V18C49.2642 17 49.0635 16.1 48.7625 15.2C48.3612 14.3 47.8595 13.5 47.1572 12.8C46.4549 12.1 45.6522 11.6 44.7492 11.2C43.8462 10.8 42.9431 10.7 42.0401 10.7H41.9398H33.4114V8.9C33.612 4.1 29.699 0.1 24.8829 0Z" fill="#1CDAE6"/>
</svg>
