<svg width="50" height="60" viewBox="0 0 50 60" fill="none" xmlns="http://www.w3.org/2000/svg">
<path d="M39.2669 34.4576C37.1463 37.3661 34.9116 40.431 33.6783 43.9883H16.3271C15.0882 40.3892 12.8093 37.2789 10.6507 34.3327L10.6236 34.2957L10.6229 34.2948C10.0106 33.461 9.407 32.6391 8.82782 31.8074L8.82677 31.8059C6.61392 28.6408 5.3172 24.7851 5.3172 20.625C5.3172 9.7893 14.1271 1 25 1C35.8725 1 44.6828 9.78893 44.6828 20.6367C44.6828 24.796 43.3866 28.6407 41.1723 31.819L41.1722 31.8192C40.593 32.6508 39.9894 33.4727 39.3771 34.3065L39.375 34.3094L39.2669 34.4576ZM33.4013 50.625C33.4013 55.2498 29.6446 59 25 59C20.3554 59 16.5987 55.2498 16.5987 50.625V49.75H33.4013V50.625ZM13.7185 23.5C15.3023 23.5 16.5987 22.2112 16.5987 20.625C16.5987 16.0002 20.3554 12.25 25 12.25C26.5838 12.25 27.8803 10.9612 27.8803 9.375C27.8803 7.78883 26.5838 6.5 25 6.5C17.1761 6.5 10.8382 12.8162 10.8382 20.625C10.8382 22.2112 12.1347 23.5 13.7185 23.5Z" stroke="white" stroke-width="2"/>
</svg>
